<svg xmlns="http://www.w3.org/2000/svg" version="1.1" xmlns:xlink="http://www.w3.org/1999/xlink" xmlns:svgjs="http://svgjs.dev/svgjs" width="1000" height="1000" viewBox="0 0 1000 1000"><g transform="matrix(1,0,0,1,0,0.00048192920093015346)"><svg viewBox="0 0 280 280" data-background-color="#ffffff" preserveAspectRatio="xMidYMid meet" height="1000" width="1000" xmlns="http://www.w3.org/2000/svg" xmlns:xlink="http://www.w3.org/1999/xlink"><g id="tight-bounds" transform="matrix(1,0,0,1,0,-0.0001349401762524849)"><svg viewBox="0 0 280 280" height="280" width="280"><g><svg viewBox="0 0 280 280" height="280" width="280"><g><svg viewBox="0 0 280 280" height="280" width="280"><g id="textblocktransform"><svg viewBox="0 0 280 280" height="280" width="280" id="textblock"><g><svg viewBox="0 0 280 280" height="280" width="280"><g transform="matrix(1,0,0,1,82.9404111292522,74.00336708925556)"><svg viewBox="0 0 114.11917774149559 131.99326582148888" height="131.99326582148888" width="114.11917774149559"><g><svg xmlns="http://www.w3.org/2000/svg" xmlns:xlink="http://www.w3.org/1999/xlink" version="1.1" x="0" y="0" viewBox="9 1 83 96" enable-background="new 0 0 100 100" xml:space="preserve" height="131.99326582148888" width="114.11917774149559" class="icon-o-0" data-fill-palette-color="accent" id="o-0"><g fill="#ee3e38" data-fill-palette-color="accent"><path fill="#ee3e38" d="M71.3 10.01C57.831 10.01 50.55 1 50.55 1s-7.306 9.01-20.774 9.01C17.371 10.01 9 2.528 9 2.528v48.928C9.378 83.682 50.5 97 50.5 97S92 83.682 92 51.456V2.528C92 2.528 83.703 10.01 71.3 10.01z" data-fill-palette-color="accent"></path></g></svg></g></svg></g><g><path d="M27.829 111.642l-26.705-9.018 3.169-9.385c0.816-2.416 2.161-3.967 4.036-4.651 1.875-0.685 4.058-0.606 6.55 0.236v0c2.314 0.782 4.114 1.935 5.399 3.459 1.284 1.525 1.424 3.775 0.419 6.75v0l-2.68 7.935 10.224 3.453zM19.463 98.659c0.876-2.594 0.733-4.52-0.429-5.776-1.162-1.257-2.685-2.203-4.567-2.838v0c-2.187-0.739-4.057-0.824-5.608-0.258-1.551 0.567-2.658 1.83-3.319 3.788v0l-2.783 8.24 14.039 4.741z" fill="#ee3e38" data-fill-palette-color="primary"></path><path d="M58.737 59.712l-19.063-18.977-2.33 2.226-0.856-0.852 3.182-3.196 19.976 19.886z" fill="#ee3e38" data-fill-palette-color="primary"></path><path d="M107.476 30.805c0.511-0.408 0.916-0.814 1.214-1.218 0.299-0.404 0.49-1.012 0.574-1.824 0.084-0.812-0.097-1.851-0.543-3.117v0l-2.315-6.571c-0.351 1.347-1.108 2.489-2.272 3.427-1.164 0.937-2.354 1.619-3.569 2.047v0c-2.684 0.946-5.038 1.028-7.064 0.247-2.025-0.781-3.498-2.475-4.416-5.083v0l-3.305-9.38 1.215-0.428 3.305 9.38c0.758 2.152 1.98 3.579 3.664 4.281 1.684 0.702 3.742 0.624 6.173-0.232v0c1.848-0.651 3.243-1.641 4.184-2.969 0.941-1.328 1.288-2.745 1.042-4.252v0l-3.974-11.28 1.215-0.428 7.373 20.926c0.598 1.696 0.748 3.152 0.449 4.367-0.298 1.215-1.069 2.198-2.312 2.95v0z" fill="#ee3e38" data-fill-palette-color="primary"></path><path d="M174.12 2.61l1.271 0.215-3.456 20.447c-0.452 2.673-1.595 4.481-3.428 5.424-1.834 0.942-3.902 1.219-6.205 0.83v0c-2.303-0.389-4.172-1.331-5.607-2.826-1.435-1.495-1.927-3.579-1.475-6.253v0l3.456-20.447 1.27 0.215-3.483 20.606c-0.362 2.144 0.077 3.852 1.319 5.123 1.242 1.272 2.829 2.071 4.761 2.398v0c1.191 0.201 2.353 0.173 3.485-0.085 1.133-0.258 2.122-0.798 2.97-1.622 0.847-0.823 1.394-1.963 1.639-3.418v0z" fill="#ee3e38" data-fill-palette-color="primary"></path><path d="M213.477 44.052c-0.612 0.783-0.986 1.753-1.123 2.91-0.137 1.157 0.055 2.369 0.576 3.635 0.521 1.266 1.434 2.437 2.738 3.514v0c1.863 1.538 3.731 2.385 5.605 2.539 1.874 0.155 3.554-0.668 5.041-2.469v0c0.803-0.973 1.184-2.025 1.144-3.155-0.041-1.131-0.329-2.247-0.864-3.35-0.534-1.103-1.317-2.463-2.349-4.081v0c-1.08-1.727-1.888-3.152-2.424-4.273-0.536-1.121-0.823-2.281-0.861-3.479-0.038-1.198 0.379-2.324 1.25-3.38v0c0.752-0.911 1.724-1.561 2.917-1.952 1.193-0.39 2.521-0.408 3.985-0.051 1.464 0.356 2.962 1.166 4.494 2.431v0c1.014 0.837 1.793 1.602 2.336 2.294 0.543 0.692 1.019 1.485 1.428 2.381v0l-1.162 0.711c-0.344-0.806-0.815-1.595-1.413-2.368-0.598-0.772-1.239-1.441-1.922-2.004v0c-1.739-1.436-3.493-2.231-5.262-2.387-1.769-0.155-3.243 0.481-4.422 1.91v0c-0.667 0.807-0.962 1.703-0.888 2.688 0.075 0.984 0.365 1.972 0.87 2.963 0.505 0.991 1.242 2.27 2.211 3.836v0c1.15 1.854 2.011 3.383 2.583 4.587 0.573 1.204 0.874 2.462 0.904 3.775 0.03 1.313-0.442 2.559-1.417 3.739v0c-1.572 1.904-3.426 2.916-5.559 3.034-2.134 0.118-4.464-0.866-6.989-2.951v0c-1.532-1.265-2.606-2.63-3.223-4.097-0.617-1.467-0.838-2.885-0.664-4.256 0.174-1.37 0.642-2.559 1.405-3.566v0z" fill="#ee3e38" data-fill-palette-color="primary"></path><path d="M252.178 110.712l14.274-5.622-5.4-13.712-14.275 5.622-0.472-1.199 26.226-10.329 0.472 1.199-10.752 4.235 5.4 13.712 10.753-4.235 0.472 1.199-26.226 10.329z" fill="#ee3e38" data-fill-palette-color="primary"></path><path d="M8.599 183.65l27.077-9.173 3.227 9.525c0.829 2.447 0.7 4.524-0.386 6.231-1.095 1.703-2.905 2.982-5.428 3.838v0c-2.345 0.795-4.506 0.974-6.482 0.537-1.976-0.436-3.475-2.164-4.498-5.182v0l-2.727-8.047-10.363 3.511zM23.335 188.968c0.892 2.631 2.192 4.097 3.902 4.396 1.714 0.291 3.525 0.113 5.432-0.533v0c2.218-0.752 3.776-1.832 4.673-3.241 0.904-1.411 1.019-3.109 0.347-5.092v0l-2.832-8.362-14.235 4.823z" fill="#ee3e38" data-fill-palette-color="primary"></path><path d="M44.359 243.388l19.334-19.246-2.244-2.369 0.87-0.866 3.224 3.239-20.261 20.17z" fill="#ee3e38" data-fill-palette-color="primary"></path><path d="M101.16 275.707c0.666 0.008 1.247-0.054 1.742-0.185 0.488-0.133 1.025-0.492 1.608-1.076 0.586-0.59 1.106-1.527 1.56-2.812v0l2.355-6.663c-1.138 0.843-2.465 1.264-3.98 1.263-1.515-0.002-2.887-0.22-4.114-0.654v0c-2.727-0.964-4.64-2.398-5.74-4.303-1.105-1.907-1.191-4.183-0.255-6.828v0l3.361-9.51 1.234 0.436-3.362 9.51c-0.772 2.183-0.716 4.089 0.168 5.719 0.886 1.623 2.562 2.87 5.03 3.742v0c1.873 0.662 3.604 0.769 5.193 0.32 1.583-0.451 2.758-1.349 3.526-2.694v0l4.042-11.437 1.234 0.437-7.498 21.212c-0.608 1.721-1.419 2.968-2.433 3.742-1.005 0.769-2.237 1.053-3.696 0.85v0z" fill="#ee3e38" data-fill-palette-color="primary"></path><path d="M168.026 250.114l1.29-0.217 3.477 20.74c0.455 2.714-0.038 4.828-1.479 6.342-1.448 1.508-3.341 2.458-5.677 2.85v0c-2.336 0.392-4.438 0.111-6.306-0.842-1.875-0.958-3.041-2.794-3.496-5.507v0l-3.476-20.74 1.291-0.217 3.504 20.909c0.364 2.171 1.352 3.659 2.964 4.464 1.613 0.812 3.399 1.053 5.357 0.725v0c1.211-0.203 2.316-0.616 3.314-1.239 0.998-0.623 1.768-1.47 2.31-2.541 0.535-1.07 0.679-2.342 0.431-3.819v0z" fill="#ee3e38" data-fill-palette-color="primary"></path><path d="M216.996 249.391c0.661 0.76 1.553 1.321 2.676 1.682 1.129 0.357 2.371 0.399 3.728 0.125 1.366-0.273 2.712-0.955 4.039-2.047v0c1.891-1.557 3.095-3.252 3.61-5.085 0.512-1.838 0.015-3.672-1.49-5.501v0c-0.81-0.984-1.781-1.567-2.913-1.748-1.137-0.177-2.304-0.107-3.503 0.211-1.204 0.322-2.711 0.841-4.521 1.557v0c-1.931 0.738-3.505 1.265-4.723 1.58-1.218 0.316-2.428 0.377-3.629 0.185-1.202-0.193-2.244-0.825-3.128-1.898v0c-0.759-0.922-1.218-2.018-1.376-3.287-0.159-1.26 0.081-2.583 0.721-3.971 0.636-1.393 1.731-2.729 3.285-4.008v0c1.031-0.849 1.945-1.475 2.742-1.88 0.788-0.405 1.667-0.725 2.639-0.96v0l0.49 1.292c-0.872 0.187-1.749 0.505-2.631 0.954-0.887 0.443-1.677 0.951-2.372 1.522v0c-1.767 1.455-2.898 3.047-3.395 4.777-0.497 1.73-0.148 3.321 1.047 4.772v0c0.678 0.824 1.515 1.291 2.51 1.401 0.994 0.12 2.033 0.025 3.117-0.284 1.084-0.31 2.499-0.797 4.247-1.462v0c2.064-0.787 3.754-1.348 5.069-1.683 1.311-0.34 2.62-0.397 3.928-0.17 1.313 0.223 2.463 0.932 3.448 2.129v0c1.591 1.933 2.242 3.974 1.953 6.125-0.294 2.146-1.723 4.274-4.288 6.386v0c-1.56 1.284-3.13 2.09-4.711 2.418-1.581 0.328-3.035 0.273-4.361-0.165-1.331-0.434-2.425-1.129-3.281-2.084v0z" fill="#ee3e38" data-fill-palette-color="primary"></path><path d="M271.06 185.559l-14.471-5.728-5.501 13.9 14.471 5.728-0.482 1.216-26.583-10.52 0.482-1.217 10.895 4.312 5.501-13.9-10.895-4.312 0.482-1.217 26.583 10.521z" fill="#ee3e38" data-fill-palette-color="primary"></path><path d="M2.197 144.373c0-6.032 4.89-10.921 10.921-10.922 6.032 0 10.921 4.89 10.921 10.922 0 6.032-4.89 10.921-10.921 10.921-6.032 0-10.921-4.89-10.921-10.921z" fill="#ee3e38" data-fill-palette-color="primary"></path><path d="M255.881 144.373c0-6.032 4.89-10.921 10.922-10.922 6.032 0 10.921 4.89 10.921 10.922 0 6.032-4.89 10.921-10.921 10.921-6.032 0-10.921-4.89-10.922-10.921z" fill="#ee3e38" data-fill-palette-color="primary"></path></g></svg></g></svg></g></svg></g></svg></g><defs></defs></svg><rect width="280" height="280" fill="none" stroke="none" visibility="hidden"></rect></g></svg></g></svg>